<?xml version="1.0" standalone="no"?>
<!DOCTYPE svg PUBLIC "-//W3C//DTD SVG 20010904//EN"
 "http://www.w3.org/TR/2001/REC-SVG-20010904/DTD/svg10.dtd">
<svg version="1.0" xmlns="http://www.w3.org/2000/svg"
 width="500.000000pt" height="499.000000pt" viewBox="0 0 500.000000 499.000000"
 preserveAspectRatio="xMidYMid meet">

<g transform="translate(0.000000,499.000000) scale(0.100000,-0.100000)"
fill="#000000" stroke="none">
<path d="M1570 4290 l0 -100 1046 0 c991 0 1045 1 1040 18 -3 9 -10 46 -16 82
-6 36 -13 73 -16 83 -5 16 -63 17 -1030 17 l-1024 0 0 -100z"/>
<path d="M1320 3808 c1 -268 16 -606 31 -694 10 -60 17 -73 58 -114 86 -86
237 -142 386 -142 103 -1 121 8 129 67 9 57 -2 131 -21 147 -9 7 -67 15 -150
19 -148 8 -174 17 -202 74 -23 48 -32 171 -29 420 l3 240 1069 3 c619 1 1074
-2 1079 -7 10 -10 -11 -692 -22 -703 -3 -4 -78 -12 -165 -17 -206 -14 -210
-17 -204 -113 8 -103 8 -103 191 -103 138 0 157 2 205 24 105 47 159 137 176
291 7 64 36 666 36 758 l0 62 -1285 0 -1285 0 0 -212z"/>
<path d="M2507 3574 c-4 -4 -7 -541 -7 -1194 0 -653 -2 -1189 -5 -1192 -5 -4
-117 7 -161 17 l-21 5 -7 1087 c-3 599 -9 1126 -13 1172 l-6 84 -187 -6 c-294
-11 -330 -23 -330 -113 0 -35 5 -47 25 -60 23 -15 36 -15 176 1 83 9 154 13
158 9 11 -13 -6 -1707 -18 -1917 -6 -96 -16 -192 -23 -213 -11 -33 -18 -40
-48 -44 -73 -13 -93 -38 -104 -132 l-6 -48 690 0 690 0 -6 48 c-13 105 -31
123 -139 131 l-70 6 0 73 c0 39 2 522 3 1073 l2 1000 145 -7 c167 -8 175 -5
175 61 0 66 -17 102 -53 115 -18 6 -99 13 -182 16 -82 2 -183 6 -224 9 l-74 4
6 -712 c4 -392 10 -925 14 -1184 l6 -473 -106 0 -107 0 -2 1193 -3 1192 -90 3
c-50 1 -94 0 -98 -4z"/>
<path d="M1320 766 l0 -96 1299 0 1299 0 -5 43 c-3 23 -9 60 -12 82 l-7 40
-172 6 c-95 4 -674 10 -1287 14 l-1115 7 0 -96z"/>
</g>
</svg>
